PathFileType	4	(X/Y/Z)	C:/Users/opensim2020/Desktop/walking_exp_matlab/subject03_walking13_straight_01.trc																																																																																																																																								
DataRate	CameraRate	NumFrames	NumMarkers	Units	OrigDataRate	OrigDataStartFrame	OrigNumFrames																																																																																																																																				
100	100	7	46	mm	100	592	185																																																																																																																																				
Frame#	Time	LFHD			RFHD			LBHD			RBHD			C7			T10			CLAV			STRN			RBAK			LSHO			LUPA			LELB			LFRM			LWRA			LWRB			LFIN			RSHO			RUPA			RELB			RFRM			RWRA			RWRB			RFIN			LASI			RASI			LPSI			RPSI			LTHI			LKNE			LTIB			LANK			LHEE			LTOE			RTHI			RKNE			RTIB			RANK			RHEE			RTOE			*39			*40			*41			*42			*43			*44			*45		
		X1	Y1	Z1	X2	Y2	Z2	X3	Y3	Z3	X4	Y4	Z4	X5	Y5	Z5	X6	Y6	Z6	X7	Y7	Z7	X8	Y8	Z8	X9	Y9	Z9	X10	Y10	Z10	X11	Y11	Z11	X12	Y12	Z12	X13	Y13	Z13	X14	Y14	Z14	X15	Y15	Z15	X16	Y16	Z16	X17	Y17	Z17	X18	Y18	Z18	X19	Y19	Z19	X20	Y20	Z20	X21	Y21	Z21	X22	Y22	Z22	X23	Y23	Z23	X24	Y24	Z24	X25	Y25	Z25	X26	Y26	Z26	X27	Y27	Z27	X28	Y28	Z28	X29	Y29	Z29	X30	Y30	Z30	X31	Y31	Z31	X32	Y32	Z32	X33	Y33	Z33	X34	Y34	Z34	X35	Y35	Z35	X36	Y36	Z36	X37	Y37	Z37	X38	Y38	Z38	X39	Y39	Z39	X40	Y40	Z40	X41	Y41	Z41	X42	Y42	Z42	X43	Y43	Z43	X44	Y44	Z44	X45	Y45	Z45	X46	Y46	Z46
																																																																																																																																											
47	0.46	-772.91187	1619.54004	-1064.6731	-803.74963	1616.07556	-934.75146	-885.73865	1550.48474	-1090.82007	-911.86206	1547.21436	-962.09143	-903.90894	1401.45007	-1042.07312	-958.76263	1098.77344	-1041.29797	-782.28888	1325.40356	-1014.96375	-746.76331	1155.55627	-1017.29474	-980.34119	1231.98743	-965.85138	-801.28101	1367.61743	-1175.85315	-773.93286	1180.67261	-1252.78308	-733.1748	1064.07117	-1262.43567	-665.90228	953.64532	-1243.33386	-616.3269	851.67578	-1197.45398	-623.15485	848.61731	-1252.15112	-575.73627	783.89349	-1232.40833	-872.50476	1355.99268	-873.6142	-919.59497	1139.09729	-801.52637	-920.55957	1025.97229	-784.47534	-926.31274	889.12189	-777.664	-906.95251	788.42358	-805.85919	-944.54205	790.6615	-767.46576	-932.54126	716.45447	-772.453	-812.33069	921.32385	-1141.59729	-825.17188	923.20251	-908.95605	-974.92346	956.15283	-1101.69995	-981.51337	958.15546	-953.65582	-908.63165	627.55237	-1181.96777	-945.4953	453.45151	-1141.82043	-1030.95764	274.95657	-1153.63086	-1090.25928	69.90699	-1115.79785	-1139.85645	38.48714	-1086.64087	-948.26276	28.44514	-1063.31396	-803.87604	639.75519	-853.04285	-718.17535	482.25827	-879.20288	-732.92761	289.60593	-876.61407	-726.86151	73.30708	-921.92413	-763.05597	39.6234	-979.51312	-587.18146	42.42519	-924.57385	-875.09363	1657.82031	-1034.87341	NaN	NaN	NaN	NaN	NaN	NaN	NaN	NaN	NaN	NaN	NaN	NaN	NaN	NaN	NaN	NaN	NaN	NaN
48	0.47	-761.34845	1617.88257	-1064.37964	-792.09772	1614.54504	-934.54767	-874.04065	1548.73901	-1090.50586	-900.06537	1545.50635	-961.73053	-892.17017	1399.77563	-1041.37732	-946.849	1096.9176	-1040.01672	-770.50903	1323.82544	-1014.53455	-734.71631	1154.08997	-1017.22778	-968.31982	1229.797	-965.62177	-790.49786	1366.18994	-1175.25012	-761.23474	1180.24805	-1252.39417	-718.03674	1064.45056	-1261.71753	-647.50653	956.73022	-1241.28796	-594.15308	857.38483	-1193.93921	-601.13068	852.94379	-1248.46741	-551.28815	790.44128	-1227.69849	-861.24243	1354.57056	-873.31616	-909.75604	1137.88818	-801.60413	-911.24609	1024.62695	-784.53778	-918.67426	887.79846	-777.87115	-899.67578	786.67767	-805.64862	-938.40826	789.58527	-767.80957	-927.33716	715.23004	-772.42047	-800.8197	919.5719	-1141.31836	-811.41364	921.26099	-908.52521	-963.15387	954.25293	-1099.96826	-968.44592	956.06073	-951.8609	-900.2431	626.54669	-1181.62744	-939.88995	451.9809	-1140.72278	-1027.44739	275.52362	-1153.125	-1089.71582	71.23318	-1115.47229	-1139.49097	40.49168	-1086.33105	-947.98364	28.17732	-1063.17749	-791.98871	637.24585	-851.90546	-706.82068	479.87302	-879.7309	-711.57245	287.74603	-875.36578	-690.75311	71.78648	-918.90601	-725.1095	37.17768	-976.45581	-549.05615	45.30651	-922.8847	-864.17365	1656.62622	-1033.48755	NaN	NaN	NaN	NaN	NaN	NaN	NaN	NaN	NaN	NaN	NaN	NaN	NaN	NaN	NaN	NaN	NaN	NaN
49	0.48	-749.64471	1616.29077	-1064.16528	-780.36194	1613.10034	-934.30481	-862.28033	1547.03442	-1090.13635	-888.19281	1543.86829	-961.34113	-880.52002	1398.1001	-1040.53357	-934.76764	1095.11584	-1038.69177	-758.66132	1322.33704	-1014.04614	-722.48315	1152.66382	-1017.08289	-956.16028	1227.69873	-965.16309	-779.66425	1364.87891	-1174.68237	-748.53168	1179.90491	-1251.78369	-702.99231	1064.99854	-1260.73743	-629.31665	959.82135	-1239.12524	-572.72754	863.24597	-1190.39197	-579.63568	857.52338	-1244.82642	-527.65479	797.22192	-1222.98413	-849.56799	1353.12012	-872.79425	-899.59381	1136.6283	-801.47925	-901.41058	1023.30334	-784.47931	-910.60065	886.50696	-778.08087	-893.76636	785.23785	-805.99341	-931.93829	788.52594	-768.16962	-921.78345	714.09277	-772.58673	-789.08844	917.92041	-1141.01318	-797.59692	919.43646	-908.12695	-951.40039	952.13556	-1098.10486	-955.19354	954.07935	-949.90057	-891.37463	625.58667	-1181.21924	-932.32275	451.92139	-1140.86401	-1023.4353	276.15668	-1152.51855	-1088.46338	72.53093	-1114.6084	-1138.95874	42.8417	-1085.97986	-947.44623	27.8798	-1063.20544	-781.05927	634.8598	-850.69098	-696.01794	477.30493	-880.41724	-691.57471	286.55566	-874.42078	-657.23077	71.56328	-915.8642	-690.23926	36.1793	-973.36731	-513.76306	49.49218	-921.2962	-852.5094	1655.00415	-1033.2771	NaN	NaN	NaN	NaN	NaN	NaN	NaN	NaN	NaN	NaN	NaN	NaN	NaN	NaN	NaN	NaN	NaN	NaN
50	0.49	-737.8559	1614.80298	-1063.96155	-768.44049	1611.67944	-934.0412	-850.46368	1545.40637	-1089.70837	-876.15533	1542.2771	-960.91467	-868.82922	1396.49121	-1039.56116	-922.24664	1093.34912	-1037.43188	-746.70966	1320.94092	-1013.60187	-710.15466	1151.37622	-1016.97144	-943.7475	1225.70764	-964.40649	-768.88147	1363.573	-1173.94824	-735.81787	1179.71191	-1251.09375	-688.27979	1065.48303	-1259.48523	-611.75873	962.974	-1236.95923	-552.12054	869.11682	-1186.79639	-558.8775	862.198	-1241.12427	-504.74771	804.17499	-1218.33386	-837.4729	1351.77795	-872.31268	-888.79797	1135.41077	-801.24243	-891.00543	1021.91913	-784.38397	-902.11176	885.18268	-778.22028	-885.24506	784.32544	-806.0047	-924.99628	787.4964	-768.50525	-915.71326	712.98639	-772.79901	-776.72742	916.29193	-1140.33386	-783.55023	917.87018	-907.79498	-939.30493	950.08527	-1096.0896	-941.61884	952.24634	-947.81586	-881.9726	624.69049	-1180.70313	-924.77222	451.42264	-1140.48669	-1018.96057	277.04349	-1152.08545	-1087.57971	74.30533	-1114.49414	-1138.46191	45.52002	-1085.75378	-947.11713	27.65989	-1063.10901	-770.75922	633.08661	-849.5108	-685.26373	475.00363	-881.07227	-672.49768	285.83533	-873.57135	-626.71887	72.42343	-912.81024	-658.07562	35.2828	-969.83636	-481.74359	55.14102	-919.91559	-839.78101	1653.09888	-1034.35608	NaN	NaN	NaN	NaN	NaN	NaN	NaN	NaN	NaN	NaN	NaN	NaN	NaN	NaN	NaN	NaN	NaN	NaN
51	0.5	-725.92725	1613.42029	-1063.66663	-756.23126	1610.30884	-933.71863	-838.55896	1543.94055	-1089.22607	-864.10321	1540.90869	-960.38495	-857.14893	1395.04126	-1038.59033	-909.66779	1091.49146	-1036.14368	-734.56348	1319.60181	-1013.12378	-697.4892	1150.23657	-1016.93457	-931.19659	1223.81458	-963.37183	-757.95331	1362.43311	-1173.18237	-723.1712	1179.35913	-1249.96655	-673.96863	1065.98047	-1258.18567	-594.69995	966.27753	-1234.92188	-532.11481	875.1983	-1183.38574	-538.64172	867.17285	-1237.52966	-482.67767	811.33392	-1213.72705	-825.01294	1350.44934	-871.55377	-877.362	1134.20251	-800.87671	-879.90948	1020.5542	-784.2121	-892.86011	883.87921	-778.3526	-879.00916	782.23224	-806.45636	-917.40881	786.49677	-768.73187	-909.18695	711.90186	-773.32013	-765.55768	914.80957	-1141.2467	-769.22168	916.69061	-907.38776	-927.13324	948.01013	-1093.84521	-927.85651	950.61566	-945.66785	-872.00824	623.82526	-1180.07239	-916.5921	450.85437	-1140.2019	-1014.00238	278.04865	-1151.80786	-1086.40686	76.43164	-1114.25598	-1137.82556	48.62852	-1085.7655	-946.77612	27.45151	-1063.06482	-760.6062	631.51172	-848.33887	-674.29559	473.30542	-881.40472	-654.16785	285.55237	-872.7724	-599.38409	73.919	-910.25909	-629.57349	34.90193	-966.46582	-453.3736	61.82845	-918.66064	-828.77307	1651.98425	-1032.58936	NaN	NaN	NaN	NaN	NaN	NaN	NaN	NaN	NaN	NaN	NaN	NaN	NaN	NaN	NaN	NaN	NaN	NaN
52	0.51	-713.96057	1612.13745	-1063.32019	-744.04065	1609.27917	-933.43854	-826.60168	1542.64905	-1088.64685	-851.87195	1539.70862	-959.80878	-845.1944	1393.49951	-1037.42065	-896.68372	1089.91528	-1034.93982	-722.28528	1318.49768	-1012.61804	-684.78674	1149.2074	-1016.72681	-918.45831	1222.14001	-962.07617	-747.01849	1361.38196	-1172.16016	-710.31226	1179.08118	-1249.01746	-660.25214	1066.48413	-1257.11609	-578.30463	969.51318	-1232.91736	-512.97144	881.31854	-1179.98865	-519.13354	872.28638	-1234.0155	-461.50848	818.60089	-1209.21692	-812.17694	1349.15674	-870.69122	-865.2088	1132.98401	-800.3371	-868.13672	1019.19818	-784.0202	-882.94696	882.67169	-778.40894	-870.09985	780.74384	-806.0108	-909.05811	785.5766	-768.8418	-902.35242	710.7998	-773.59558	-752.88348	913.30695	-1140.64075	-754.97107	915.85596	-906.9978	-914.49567	946.04297	-1091.71204	-913.87762	949.27325	-943.60046	-861.42236	622.88922	-1179.29297	-907.76276	450.16376	-1139.94287	-1009.40533	278.30362	-1150.61157	-1085.53027	78.84554	-1114.83716	-1136.7959	51.86121	-1086.30872	-946.59503	27.25804	-1062.98987	-749.6084	629.95264	-847.59186	-662.90839	471.83633	-881.47913	-636.84369	285.59882	-872.14893	-575.42261	75.38622	-908.71375	-604.72113	34.8133	-964.52954	-428.76791	67.90333	-917.40936	-815.828	1650.43262	-1033.60864	NaN	NaN	NaN	NaN	NaN	NaN	NaN	NaN	NaN	NaN	NaN	NaN	NaN	NaN	NaN	NaN	NaN	NaN
53	0.52	-701.67639	1611.05615	-1062.80432	-731.67554	1608.22156	-933.01697	-814.55353	1541.59998	-1088.06458	-839.59747	1538.75183	-959.18219	-833.19464	1392.13611	-1036.15344	-883.61511	1088.4314	-1033.77637	-709.83081	1317.53906	-1012.08746	-671.76642	1148.39172	-1016.53107	-905.57385	1220.61182	-960.58124	-735.77136	1360.50159	-1171.27698	-697.64429	1178.93127	-1247.79346	-646.84363	1066.86646	-1256.14929	-562.50562	972.78046	-1230.98413	-494.58359	887.54193	-1176.68176	-500.34225	877.56531	-1230.64673	-441.14584	825.98651	-1204.88501	-799.07635	1348.08447	-869.7713	-852.27954	1131.74329	-799.68219	-855.69196	1017.83893	-783.79578	-872.28656	881.53949	-778.38037	-862.1673	779.39294	-807.29022	-899.96747	784.69128	-768.70825	-894.87158	709.92859	-774.19604	-740.15326	911.86237	-1140.20508	-740.66522	915.31018	-906.57642	-901.63342	944.1391	-1089.59607	-899.81964	948.26172	-941.67572	-850.24902	621.91132	-1178.45227	-898.02209	449.41956	-1139.75256	-1002.2514	280.1514	-1151.39246	-1083.99011	81.65112	-1115.16846	-1135.76257	55.99881	-1086.64246	-946.42853	27.10562	-1062.87805	-737.09436	628.79736	-847.0174	-650.53644	470.7565	-881.60352	-620.86212	285.65894	-872.07776	-555.44208	76.37653	-908.4007	-583.35034	34.78262	-964.12067	-408.29462	71.98779	-916.47034	-803.53271	1649.4657	-1033.24878	NaN	NaN	NaN	NaN	NaN	NaN	NaN	NaN	NaN	NaN	NaN	NaN	NaN	NaN	NaN	NaN	NaN	NaN
